<svg xmlns="http://www.w3.org/2000/svg" xmlns:xlink="http://www.w3.org/1999/xlink" width="18" height="18" viewBox="0 0 18 18">
  <metadata><?xpacket begin="﻿" id="W5M0MpCehiHzreSzNTczkc9d"?>
<x:xmpmeta xmlns:x="adobe:ns:meta/" x:xmptk="Adobe XMP Core 5.6-c142 79.160924, 2017/07/13-01:06:39        ">
   <rdf:RDF xmlns:rdf="http://www.w3.org/1999/02/22-rdf-syntax-ns#">
      <rdf:Description rdf:about=""/>
   </rdf:RDF>
</x:xmpmeta>
                                                                                                    
                                                                                                    
                                                                                                    
                                                                                                    
                                                                                                    
                                                                                                    
                                                                                                    
                                                                                                    
                                                                                                    
                                                                                                    
                                                                                                    
                                                                                                    
                                                                                                    
                                                                                                    
                                                                                                    
                                                                                                    
                                                                                                    
                                                                                                    
                                                                                                    
                                                                                                    
                           
<?xpacket end="w"?></metadata>
<defs>
    <style>
      .cls-1 {
        fill-rule: evenodd;
      }
    </style>
    <filter id="filter" x="1268" y="101" width="18" height="18" filterUnits="userSpaceOnUse">
      <feFlood result="flood" flood-color="#fff"/>
      <feComposite result="composite" operator="in" in2="SourceGraphic"/>
      <feBlend result="blend" in2="SourceGraphic"/>
    </filter>
  </defs>
  <path fill="#2b8999" id="fa-facebook-square" class="cls-1" d="M1271.38,101.016a3.377,3.377,0,0,0-3.38,3.369v11.233a3.377,3.377,0,0,0,3.38,3.37h6.23v-6.962h-2.34v-2.714h2.34v-2a3.278,3.278,0,0,1,3.51-3.581,15.707,15.707,0,0,1,2.09.106v2.422l-1.43.011a1.386,1.386,0,0,0-1.08.328,1.519,1.519,0,0,0-.27.983v1.732h2.68l-0.35,2.714h-2.33v6.962h2.2a3.377,3.377,0,0,0,3.38-3.37V104.385a3.377,3.377,0,0,0-3.38-3.369h-11.25Z" transform="translate(-1268 -101)"/>
</svg>
