<svg xmlns="http://www.w3.org/2000/svg" xmlns:xlink="http://www.w3.org/1999/xlink" width="18" height="18.031" viewBox="0 0 18 18.031">
  <metadata><?xpacket begin="﻿" id="W5M0MpCehiHzreSzNTczkc9d"?>
<x:xmpmeta xmlns:x="adobe:ns:meta/" x:xmptk="Adobe XMP Core 5.6-c142 79.160924, 2017/07/13-01:06:39        ">
   <rdf:RDF xmlns:rdf="http://www.w3.org/1999/02/22-rdf-syntax-ns#">
      <rdf:Description rdf:about=""/>
   </rdf:RDF>
</x:xmpmeta>
                                                                                                    
                                                                                                    
                                                                                                    
                                                                                                    
                                                                                                    
                                                                                                    
                                                                                                    
                                                                                                    
                                                                                                    
                                                                                                    
                                                                                                    
                                                                                                    
                                                                                                    
                                                                                                    
                                                                                                    
                                                                                                    
                                                                                                    
                                                                                                    
                                                                                                    
                                                                                                    
                           
<?xpacket end="w"?></metadata>
<defs>
    <style>
      .cls-1 {
        fill-rule: evenodd;
        filter: url(#filter);
      }
    </style>
    <filter id="filter" x="1296" y="101" width="18" height="18.031" filterUnits="userSpaceOnUse">
      <feFlood result="flood" flood-color="#fff"/>
      <feComposite result="composite" operator="in" in2="SourceGraphic"/>
      <feBlend result="blend" in2="SourceGraphic"/>
    </filter>
  </defs>
  <path id="fa-instagram" class="cls-1" d="M1311.76,116.743a0.7,0.7,0,0,1-.51.2h-12.53a0.7,0.7,0,0,1-.51-0.2,0.683,0.683,0,0,1-.21-0.51v-7.6h1.66a4.944,4.944,0,0,0-.24,1.536,5.159,5.159,0,0,0,1.64,3.839,5.5,5.5,0,0,0,3.96,1.589,5.633,5.633,0,0,0,2.81-.727,5.464,5.464,0,0,0,2.04-1.975,5.2,5.2,0,0,0,.75-2.726,5.251,5.251,0,0,0-.23-1.536h1.58v7.6A0.683,0.683,0,0,1,1311.76,116.743Zm-6.74-3.253a3.513,3.513,0,0,1-2.55-1.026,3.408,3.408,0,0,1,0-4.959,3.513,3.513,0,0,1,2.55-1.026,3.553,3.553,0,0,1,2.56,1.026,3.43,3.43,0,0,1,0,4.959,3.553,3.553,0,0,1-2.56,1.026h0Zm6.71-7.152a0.754,0.754,0,0,1-.57.235h-2.04a0.792,0.792,0,0,1-.58-0.235,0.8,0.8,0,0,1-.23-0.574v-1.935a0.809,0.809,0,0,1,.23-0.568,0.786,0.786,0,0,1,.58-0.241h2.04a0.748,0.748,0,0,1,.57.241,0.778,0.778,0,0,1,.24.568v1.935A0.77,0.77,0,0,1,1311.73,106.338Zm1.6-4.642a2.237,2.237,0,0,0-1.63-.68h-13.39a2.322,2.322,0,0,0-2.31,2.309v13.389a2.322,2.322,0,0,0,2.31,2.309h13.39a2.322,2.322,0,0,0,2.31-2.309V103.325A2.234,2.234,0,0,0,1313.33,101.7Z" transform="translate(-1296 -101)"/>
</svg>
