<svg xmlns="http://www.w3.org/2000/svg" xmlns:xlink="http://www.w3.org/1999/xlink" width="18" height="18.031" viewBox="0 0 18 18.031">
  <metadata><?xpacket begin="﻿" id="W5M0MpCehiHzreSzNTczkc9d"?>
<x:xmpmeta xmlns:x="adobe:ns:meta/" x:xmptk="Adobe XMP Core 5.6-c142 79.160924, 2017/07/13-01:06:39        ">
   <rdf:RDF xmlns:rdf="http://www.w3.org/1999/02/22-rdf-syntax-ns#">
      <rdf:Description rdf:about=""/>
   </rdf:RDF>
</x:xmpmeta>
                                                                                                    
                                                                                                    
                                                                                                    
                                                                                                    
                                                                                                    
                                                                                                    
                                                                                                    
                                                                                                    
                                                                                                    
                                                                                                    
                                                                                                    
                                                                                                    
                                                                                                    
                                                                                                    
                                                                                                    
                                                                                                    
                                                                                                    
                                                                                                    
                                                                                                    
                                                                                                    
                           
<?xpacket end="w"?></metadata>
<defs>
    <style>
      .cls-1 {
        fill-rule: evenodd;
      }
    </style>
    <filter id="filter" x="1352" y="101" width="18" height="18.031" filterUnits="userSpaceOnUse">
      <feFlood result="flood" flood-color="#fff"/>
      <feComposite result="composite" operator="in" in2="SourceGraphic"/>
      <feBlend result="blend" in2="SourceGraphic"/>
    </filter>
  </defs>
  <path fill="#2b8999" id="fa-pinterest-square" class="cls-1" d="M1355.38,101.016a3.38,3.38,0,0,0-3.38,3.376v11.255a3.38,3.38,0,0,0,3.38,3.376h2.14a9.165,9.165,0,0,1,.08-2.977l1.15-4.854a3.32,3.32,0,0,1-.28-1.419,2.658,2.658,0,0,1,.5-1.635,1.477,1.477,0,0,1,1.21-.663,1.084,1.084,0,0,1,.89.381,1.45,1.45,0,0,1,.31.956,3.465,3.465,0,0,1-.13.873c-0.09.34-.2,0.739-0.35,1.2s-0.24.819-.31,1.085a1.308,1.308,0,0,0,.27,1.213,1.426,1.426,0,0,0,1.14.51,2.311,2.311,0,0,0,2.03-1.383,6.627,6.627,0,0,0,.8-3.353,3.287,3.287,0,0,0-.98-2.462,3.765,3.765,0,0,0-2.73-.95,4.228,4.228,0,0,0-3.17,1.249,4.15,4.15,0,0,0-1.21,3.007,2.71,2.71,0,0,0,.58,1.758,0.488,0.488,0,0,1,.13.493c-0.04.133-.1,0.371-0.17,0.715a0.365,0.365,0,0,1-.17.223,0.349,0.349,0,0,1-.28,0,2.647,2.647,0,0,1-1.37-1.29,4.724,4.724,0,0,1-.46-2.11,5.277,5.277,0,0,1,.25-1.554,5.393,5.393,0,0,1,.78-1.5,6.226,6.226,0,0,1,1.26-1.284,5.788,5.788,0,0,1,1.8-.9,7.475,7.475,0,0,1,2.28-.334,6.144,6.144,0,0,1,2.31.428,5.316,5.316,0,0,1,1.78,1.137,5.262,5.262,0,0,1,1.14,1.63,4.684,4.684,0,0,1,.41,1.905,6.9,6.9,0,0,1-1.35,4.379,4.183,4.183,0,0,1-3.46,1.729,2.759,2.759,0,0,1-1.32-.328,1.98,1.98,0,0,1-.86-0.786c-0.34,1.368-.55,2.185-0.62,2.45a8.081,8.081,0,0,1-1.27,2.462h8.5a3.38,3.38,0,0,0,3.38-3.376V104.392a3.38,3.38,0,0,0-3.38-3.376h-11.25Z" transform="translate(-1352 -101)"/>
</svg>
