<svg xmlns="http://www.w3.org/2000/svg" xmlns:xlink="http://www.w3.org/1999/xlink" width="18" height="18.031" viewBox="0 0 18 18.031">
  <metadata><?xpacket begin="﻿" id="W5M0MpCehiHzreSzNTczkc9d"?>
<x:xmpmeta xmlns:x="adobe:ns:meta/" x:xmptk="Adobe XMP Core 5.6-c142 79.160924, 2017/07/13-01:06:39        ">
   <rdf:RDF xmlns:rdf="http://www.w3.org/1999/02/22-rdf-syntax-ns#">
      <rdf:Description rdf:about=""/>
   </rdf:RDF>
</x:xmpmeta>
                                                                                                    
                                                                                                    
                                                                                                    
                                                                                                    
                                                                                                    
                                                                                                    
                                                                                                    
                                                                                                    
                                                                                                    
                                                                                                    
                                                                                                    
                                                                                                    
                                                                                                    
                                                                                                    
                                                                                                    
                                                                                                    
                                                                                                    
                                                                                                    
                                                                                                    
                                                                                                    
                           
<?xpacket end="w"?></metadata>
<defs>
    <style>
      .cls-1 {
        fill-rule: evenodd;
      }
    </style>
    <filter id="filter" x="1324" y="101" width="18" height="18.031" filterUnits="userSpaceOnUse">
      <feFlood result="flood" flood-color="#fff"/>
      <feComposite result="composite" operator="in" in2="SourceGraphic"/>
      <feBlend result="blend" in2="SourceGraphic"/>
    </filter>
  </defs>
  <path fill="#2b8999" id="fa-twitter-square" class="cls-1" d="M1337.78,107.944c0,0.071.01,0.176,0.01,0.317a7.122,7.122,0,0,1-.29,1.975,6.879,6.879,0,0,1-.88,1.9,7.462,7.462,0,0,1-1.41,1.606,6.459,6.459,0,0,1-1.97,1.114,7.212,7.212,0,0,1-2.46.416,6.928,6.928,0,0,1-3.78-1.1,4.825,4.825,0,0,0,.59.035,4.881,4.881,0,0,0,3.06-1.055,2.361,2.361,0,0,1-1.43-.493,2.454,2.454,0,0,1-.87-1.219,3.356,3.356,0,0,0,.46.047,2.187,2.187,0,0,0,.59-0.094,2.456,2.456,0,0,1-1.44-.85,2.339,2.339,0,0,1-.58-1.565v-0.023a2.858,2.858,0,0,0,1.17.3,2.325,2.325,0,0,1-1.07-2.051,2.507,2.507,0,0,1,.34-1.243,7.041,7.041,0,0,0,5.09,2.579,2.2,2.2,0,0,1-.06-0.562,2.467,2.467,0,0,1,4.26-1.689,4.865,4.865,0,0,0,1.57-.6,2.415,2.415,0,0,1-1.09,1.372,5.23,5.23,0,0,0,1.42-.4,4.834,4.834,0,0,1-1.23,1.277h0Zm3.24-5.938a3.262,3.262,0,0,0-2.39-.99h-11.25a3.38,3.38,0,0,0-3.38,3.376v11.255a3.38,3.38,0,0,0,3.38,3.376h11.25a3.38,3.38,0,0,0,3.38-3.376V104.392A3.255,3.255,0,0,0,1341.02,102.006Z" transform="translate(-1324 -101)"/>
</svg>
