<?xml version="1.0" encoding="utf-8"?>
<!-- Generator: Adobe Illustrator 22.0.1, SVG Export Plug-In . SVG Version: 6.00 Build 0)  -->
<svg version="1.1" id="Layer_1" xmlns="http://www.w3.org/2000/svg" xmlns:xlink="http://www.w3.org/1999/xlink" x="0px" y="0px"
	 viewBox="0 0 26.7 22" style="enable-background:new 0 0 26.7 22;" xml:space="preserve">
<path fill="#ff3478" id="fa-shopping-cart" d="M9.8,17.1c-0.4,0-0.9,0.2-1.2,0.5c-0.6,0.6-0.7,1.6-0.1,2.2c0,0,0.1,0.1,0.1,0.1
	c0.3,0.3,0.7,0.5,1.2,0.5c0.4,0,0.9-0.2,1.2-0.5c0.6-0.6,0.7-1.6,0.1-2.2c0,0-0.1-0.1-0.1-0.1C10.6,17.2,10.2,17.1,9.8,17.1z
	 M21.6,17.1c-0.4,0-0.9,0.2-1.2,0.5c-0.6,0.6-0.7,1.6-0.1,2.2c0,0,0.1,0.1,0.1,0.1c0.3,0.3,0.7,0.5,1.2,0.5c0.4,0,0.9-0.2,1.2-0.5
	c0.6-0.6,0.7-1.6,0.1-2.2c0,0-0.1-0.1-0.1-0.1C22.5,17.2,22.1,17.1,21.6,17.1z M24.8,4.2C24.6,4.1,24.4,4,24.2,4H8.3
	c0-0.1,0-0.2-0.1-0.3c0-0.2-0.1-0.3-0.1-0.4C8.1,3.2,8.1,3,8,2.9c0-0.1-0.1-0.2-0.2-0.3C7.8,2.5,7.7,2.5,7.6,2.4
	C7.5,2.4,7.4,2.3,7.2,2.3H3.8c-0.2,0-0.4,0.1-0.6,0.2c-0.3,0.3-0.3,0.8,0,1.1c0,0,0,0,0,0C3.4,3.9,3.6,4,3.8,4h2.7l2.3,10.5
	c-0.1,0.1-0.1,0.3-0.2,0.4c-0.1,0.2-0.2,0.4-0.3,0.5c-0.1,0.1-0.2,0.3-0.2,0.5c-0.1,0.1-0.1,0.3-0.1,0.4c0,0.2,0.1,0.4,0.3,0.6
	c0.2,0.2,0.4,0.2,0.6,0.2h13.6c0.2,0,0.4-0.1,0.6-0.2c0.3-0.3,0.3-0.8,0-1.1c0,0,0,0,0,0c-0.2-0.2-0.4-0.2-0.6-0.2H10.3
	c0.2-0.3,0.3-0.5,0.3-0.8c0-0.3-0.1-0.6-0.2-0.9l13.8-1.6c0.2,0,0.4-0.1,0.5-0.3c0.1-0.1,0.2-0.3,0.2-0.5V4.8
	C25,4.6,24.9,4.4,24.8,4.2z"/>
</svg>
