<svg xmlns="http://www.w3.org/2000/svg" xmlns:xlink="http://www.w3.org/1999/xlink" width="15" height="12" viewBox="0 0 15 12">
  <metadata><?xpacket begin="﻿" id="W5M0MpCehiHzreSzNTczkc9d"?>
<x:xmpmeta xmlns:x="adobe:ns:meta/" x:xmptk="Adobe XMP Core 5.6-c142 79.160924, 2017/07/13-01:06:39        ">
   <rdf:RDF xmlns:rdf="http://www.w3.org/1999/02/22-rdf-syntax-ns#">
      <rdf:Description rdf:about=""/>
   </rdf:RDF>
</x:xmpmeta>
                                                                                                    
                                                                                                    
                                                                                                    
                                                                                                    
                                                                                                    
                                                                                                    
                                                                                                    
                                                                                                    
                                                                                                    
                                                                                                    
                                                                                                    
                                                                                                    
                                                                                                    
                                                                                                    
                                                                                                    
                                                                                                    
                                                                                                    
                                                                                                    
                                                                                                    
                                                                                                    
                           
<?xpacket end="w"?></metadata>
<defs>
    <style>
      .cls-1 {
        fill-rule: evenodd;
        filter: url(#filter);
      }
    </style>
    <filter id="filter" x="1125" y="755" width="15" height="12" filterUnits="userSpaceOnUse">
      <feFlood result="flood" flood-color="#2b8999"/>
      <feComposite result="composite" operator="in" in2="SourceGraphic"/>
      <feBlend result="blend" in2="SourceGraphic"/>
    </filter>
  </defs>
  <path id="fa-edit" class="cls-1" d="M1132,764v-0.818h-0.81v-0.477l0.98-.987,1.28,1.294-0.98.988H1132Zm4.17-5.85-2.95,2.98a0.174,0.174,0,0,1-.28.009,0.18,0.18,0,0,1,.01-0.281l2.95-2.98a0.165,0.165,0,0,1,.27-0.009,0.18,0.18,0,0,1,0,.281h0Zm0.51,4.53a0.26,0.26,0,0,0-.3.06l-0.53.545a0.261,0.261,0,0,0-.08.187v1.073a1.3,1.3,0,0,1-.4.962,1.281,1.281,0,0,1-.95.4h-7a1.3,1.3,0,0,1-.95-0.4,1.33,1.33,0,0,1-.39-0.962v-7.085a1.33,1.33,0,0,1,.39-0.962,1.3,1.3,0,0,1,.95-0.4h7a1.46,1.46,0,0,1,.38.051,0.245,0.245,0,0,0,.27-0.068l0.41-.417a0.255,0.255,0,0,0,.08-0.247,0.273,0.273,0,0,0-.15-0.2,2.284,2.284,0,0,0-.99-0.213h-7a2.32,2.32,0,0,0-1.71.72,2.389,2.389,0,0,0-.71,1.732v7.085a2.389,2.389,0,0,0,.71,1.732,2.32,2.32,0,0,0,1.71.72h7a2.342,2.342,0,0,0,1.72-.72,2.389,2.389,0,0,0,.71-1.732V762.93A0.252,0.252,0,0,0,1136.68,762.683Zm-6.29-.315v2.452h2.42l5.65-5.722-2.42-2.452Zm9.62-5.177a0.817,0.817,0,0,0-.23-0.579l-1.28-1.294a0.811,0.811,0,0,0-1.15,0l-0.77.783,2.42,2.452,0.78-.783A0.817,0.817,0,0,0,1140.01,757.191Z" transform="translate(-1125 -755)"/>
</svg>
