<svg xmlns="http://www.w3.org/2000/svg" xmlns:xlink="http://www.w3.org/1999/xlink" width="23" height="17.969" viewBox="0 0 23 17.969">
  <metadata><?xpacket begin="﻿" id="W5M0MpCehiHzreSzNTczkc9d"?>
<x:xmpmeta xmlns:x="adobe:ns:meta/" x:xmptk="Adobe XMP Core 5.6-c142 79.160924, 2017/07/13-01:06:39        ">
   <rdf:RDF xmlns:rdf="http://www.w3.org/1999/02/22-rdf-syntax-ns#">
      <rdf:Description rdf:about=""/>
   </rdf:RDF>
</x:xmpmeta>
                                                                                                    
                                                                                                    
                                                                                                    
                                                                                                    
                                                                                                    
                                                                                                    
                                                                                                    
                                                                                                    
                                                                                                    
                                                                                                    
                                                                                                    
                                                                                                    
                                                                                                    
                                                                                                    
                                                                                                    
                                                                                                    
                                                                                                    
                                                                                                    
                                                                                                    
                                                                                                    
                           
<?xpacket end="w"?></metadata>
<defs>
    <style>
      .cls-1 {
        fill-rule: evenodd;
      }
    </style>
    <filter id="filter" x="400" y="645.031" width="23" height="17.969" filterUnits="userSpaceOnUse">
      <feFlood result="flood" flood-color="#2b8999"/>
      <feComposite result="composite" operator="in" in2="SourceGraphic"/>
      <feBlend result="blend" in2="SourceGraphic"/>
    </filter>
  </defs>
  <path fill="#ffffff" id="fa-th" class="cls-1" d="M406.212,658.453a1.191,1.191,0,0,0-.873-0.358h-4.107A1.224,1.224,0,0,0,400,659.321v2.452A1.224,1.224,0,0,0,401.232,663h4.107a1.224,1.224,0,0,0,1.232-1.227v-2.452A1.181,1.181,0,0,0,406.212,658.453Zm0-6.539a1.191,1.191,0,0,0-.873-0.358h-4.107A1.224,1.224,0,0,0,400,652.782v2.452a1.181,1.181,0,0,0,.359.869,1.194,1.194,0,0,0,.873.357h4.107a1.194,1.194,0,0,0,.873-0.357,1.181,1.181,0,0,0,.359-0.869v-2.452A1.181,1.181,0,0,0,406.212,651.914Zm8.214,6.539a1.187,1.187,0,0,0-.872-0.358h-4.108a1.226,1.226,0,0,0-1.232,1.226v2.452A1.226,1.226,0,0,0,409.446,663h4.108a1.226,1.226,0,0,0,1.232-1.227v-2.452A1.178,1.178,0,0,0,414.426,658.453Zm-8.214-13.079a1.194,1.194,0,0,0-.873-0.357h-4.107A1.222,1.222,0,0,0,400,646.243V648.7a1.224,1.224,0,0,0,1.232,1.226h4.107a1.224,1.224,0,0,0,1.232-1.226v-2.452A1.184,1.184,0,0,0,406.212,645.374Zm8.214,6.54a1.187,1.187,0,0,0-.872-0.358h-4.108a1.226,1.226,0,0,0-1.232,1.226v2.452a1.224,1.224,0,0,0,1.232,1.226h4.108a1.224,1.224,0,0,0,1.232-1.226v-2.452A1.178,1.178,0,0,0,414.426,651.914Zm8.215,6.539a1.191,1.191,0,0,0-.873-0.358h-4.107a1.224,1.224,0,0,0-1.232,1.226v2.452A1.224,1.224,0,0,0,417.661,663h4.107A1.224,1.224,0,0,0,423,661.773v-2.452A1.181,1.181,0,0,0,422.641,658.453Zm-8.215-13.079a1.19,1.19,0,0,0-.872-0.357h-4.108a1.224,1.224,0,0,0-1.232,1.226V648.7a1.226,1.226,0,0,0,1.232,1.226h4.108a1.226,1.226,0,0,0,1.232-1.226v-2.452A1.181,1.181,0,0,0,414.426,645.374Zm8.215,6.54a1.191,1.191,0,0,0-.873-0.358h-4.107a1.224,1.224,0,0,0-1.232,1.226v2.452a1.177,1.177,0,0,0,.359.869,1.191,1.191,0,0,0,.873.357h4.107a1.194,1.194,0,0,0,.873-0.357,1.181,1.181,0,0,0,.359-0.869v-2.452A1.181,1.181,0,0,0,422.641,651.914Zm0-6.54a1.194,1.194,0,0,0-.873-0.357h-4.107a1.222,1.222,0,0,0-1.232,1.226V648.7a1.224,1.224,0,0,0,1.232,1.226h4.107A1.224,1.224,0,0,0,423,648.7v-2.452A1.184,1.184,0,0,0,422.641,645.374Z" transform="translate(-400 -645.031)"/>
</svg>
