<svg xmlns="http://www.w3.org/2000/svg" xmlns:xlink="http://www.w3.org/1999/xlink" width="12" height="12" viewBox="0 0 12 12">
  <metadata><?xpacket begin="﻿" id="W5M0MpCehiHzreSzNTczkc9d"?>
<x:xmpmeta xmlns:x="adobe:ns:meta/" x:xmptk="Adobe XMP Core 5.6-c142 79.160924, 2017/07/13-01:06:39        ">
   <rdf:RDF xmlns:rdf="http://www.w3.org/1999/02/22-rdf-syntax-ns#">
      <rdf:Description rdf:about=""/>
   </rdf:RDF>
</x:xmpmeta>
                                                                                                    
                                                                                                    
                                                                                                    
                                                                                                    
                                                                                                    
                                                                                                    
                                                                                                    
                                                                                                    
                                                                                                    
                                                                                                    
                                                                                                    
                                                                                                    
                                                                                                    
                                                                                                    
                                                                                                    
                                                                                                    
                                                                                                    
                                                                                                    
                                                                                                    
                                                                                                    
                           
<?xpacket end="w"?></metadata>
<defs>
    <style>
      .cls-1 {
        fill-rule: evenodd;
        filter: url(#filter);
      }
    </style>
    <filter id="filter" x="687" y="25" width="12" height="12" filterUnits="userSpaceOnUse">
      <feFlood result="flood" flood-color="#fff"/>
      <feComposite result="composite" operator="in" in2="SourceGraphic"/>
      <feBlend result="blend" in2="SourceGraphic"/>
    </filter>
  </defs>
  <path id="fa-phone" class="cls-1" d="M698.963,34.3a1.464,1.464,0,0,0-.647-0.451q-0.162-.094-0.46-0.255t-0.541-.3c-0.161-.09-0.313-0.179-0.455-0.264l-0.213-.149a2.4,2.4,0,0,0-.3-0.183,0.561,0.561,0,0,0-.243-0.06,0.707,0.707,0,0,0-.426.243,4.156,4.156,0,0,0-.468.528,5.117,5.117,0,0,1-.451.528,0.65,0.65,0,0,1-.392.242,0.574,0.574,0,0,1-.192-0.042A1.773,1.773,0,0,1,694,34.066c-0.04-.02-0.108-0.06-0.205-0.119s-0.15-.092-0.161-0.1a8.444,8.444,0,0,1-3.483-3.482c0-.011-0.038-0.065-0.1-0.162s-0.1-.165-0.119-0.2a1.673,1.673,0,0,1-.072-0.174,0.562,0.562,0,0,1-.043-0.191,0.649,0.649,0,0,1,.243-0.392,5.145,5.145,0,0,1,.528-0.451,4.2,4.2,0,0,0,.528-0.468,0.709,0.709,0,0,0,.242-0.426,0.566,0.566,0,0,0-.059-0.243,2.446,2.446,0,0,0-.183-0.3c-0.083-.119-0.132-0.19-0.149-0.213-0.086-.142-0.173-0.294-0.264-0.456s-0.191-.342-0.3-0.541-0.193-.352-0.256-0.46a1.466,1.466,0,0,0-.451-0.647,0.476,0.476,0,0,0-.179-0.026,2.807,2.807,0,0,0-.6.085,3.315,3.315,0,0,0-.583.179,2.282,2.282,0,0,0-.9,1.039A3.307,3.307,0,0,0,687,27.9a3.267,3.267,0,0,0,.03.447,3.568,3.568,0,0,0,.106.49c0.051,0.182.092,0.316,0.124,0.4s0.089,0.245.174,0.472,0.136,0.366.153,0.417a7.763,7.763,0,0,0,.707,1.49,14.313,14.313,0,0,0,4.087,4.087,7.71,7.71,0,0,0,1.49.707q0.077,0.026.417,0.153t0.473,0.175c0.088,0.031.223,0.072,0.4,0.123a3.71,3.71,0,0,0,.49.107,3.269,3.269,0,0,0,.447.03,3.307,3.307,0,0,0,1.584-.434,2.29,2.29,0,0,0,1.039-.9,3.44,3.44,0,0,0,.178-0.583,2.805,2.805,0,0,0,.086-0.6,0.477,0.477,0,0,0-.026-0.179h0Z" transform="translate(-687 -25)"/>
</svg>
