<svg xmlns="http://www.w3.org/2000/svg" xmlns:xlink="http://www.w3.org/1999/xlink" width="18.969" height="16" viewBox="0 0 18.969 16">
  <metadata><?xpacket begin="﻿" id="W5M0MpCehiHzreSzNTczkc9d"?>
<x:xmpmeta xmlns:x="adobe:ns:meta/" x:xmptk="Adobe XMP Core 5.6-c142 79.160924, 2017/07/13-01:06:39        ">
   <rdf:RDF xmlns:rdf="http://www.w3.org/1999/02/22-rdf-syntax-ns#">
      <rdf:Description rdf:about=""/>
   </rdf:RDF>
</x:xmpmeta>
                                                                                                    
                                                                                                    
                                                                                                    
                                                                                                    
                                                                                                    
                                                                                                    
                                                                                                    
                                                                                                    
                                                                                                    
                                                                                                    
                                                                                                    
                                                                                                    
                                                                                                    
                                                                                                    
                                                                                                    
                                                                                                    
                                                                                                    
                                                                                                    
                                                                                                    
                                                                                                    
                           
<?xpacket end="w"?></metadata>
<defs>
    <style>
      .cls-1 {
        fill-rule: evenodd;
        filter: url(#filter);
      }
    </style>
    <filter id="filter" x="744" y="5245" width="18.969" height="16" filterUnits="userSpaceOnUse">
      <feFlood result="flood" flood-color="#ff3478"/>
      <feComposite result="composite" operator="in" in2="SourceGraphic"/>
      <feBlend result="blend" in2="SourceGraphic"/>
    </filter>
  </defs>
  <path id="fa-quote-left" class="cls-1" d="M752.12,5252.92a2.1,2.1,0,0,0-1.551-.64h-2.555a1.067,1.067,0,0,1-.775-0.32,1.046,1.046,0,0,1-.32-0.77v-0.36a2.912,2.912,0,0,1,2.92-2.91h0.73a0.747,0.747,0,0,0,.73-0.73v-1.45a0.686,0.686,0,0,0-.217-0.51,0.721,0.721,0,0,0-.513-0.22h-0.73a5.846,5.846,0,0,0-5.377,3.56,5.676,5.676,0,0,0-.462,2.26v7.99a2.183,2.183,0,0,0,2.19,2.18h4.379a2.183,2.183,0,0,0,2.19-2.18v-4.36A2.075,2.075,0,0,0,752.12,5252.92Zm10.218,0a2.094,2.094,0,0,0-1.551-.64h-2.554a1.069,1.069,0,0,1-.776-0.32,1.045,1.045,0,0,1-.319-0.77v-0.36a2.911,2.911,0,0,1,2.92-2.91h0.729a0.745,0.745,0,0,0,.73-0.73v-1.45a0.685,0.685,0,0,0-.216-0.51,0.725,0.725,0,0,0-.514-0.22h-0.729a5.846,5.846,0,0,0-5.378,3.56,5.676,5.676,0,0,0-.462,2.26v7.99a2.183,2.183,0,0,0,2.19,2.18h4.379a2.183,2.183,0,0,0,2.19-2.18v-4.36A2.075,2.075,0,0,0,762.338,5252.92Z" transform="translate(-744 -5245)"/>
</svg>
