<svg xmlns="http://www.w3.org/2000/svg" xmlns:xlink="http://www.w3.org/1999/xlink" width="12" height="12" viewBox="0 0 12 12">
  <metadata><?xpacket begin="﻿" id="W5M0MpCehiHzreSzNTczkc9d"?>
<x:xmpmeta xmlns:x="adobe:ns:meta/" x:xmptk="Adobe XMP Core 5.6-c142 79.160924, 2017/07/13-01:06:39        ">
   <rdf:RDF xmlns:rdf="http://www.w3.org/1999/02/22-rdf-syntax-ns#">
      <rdf:Description rdf:about=""/>
   </rdf:RDF>
</x:xmpmeta>
                                                                                                    
                                                                                                    
                                                                                                    
                                                                                                    
                                                                                                    
                                                                                                    
                                                                                                    
                                                                                                    
                                                                                                    
                                                                                                    
                                                                                                    
                                                                                                    
                                                                                                    
                                                                                                    
                                                                                                    
                                                                                                    
                                                                                                    
                                                                                                    
                                                                                                    
                                                                                                    
                           
<?xpacket end="w"?></metadata>
<defs>
    <style>
      .cls-1 {
        fill-rule: evenodd;
        filter: url(#filter);
      }
    </style>
    <filter id="filter" x="1507" y="27" width="12" height="12" filterUnits="userSpaceOnUse">
      <feFlood result="flood" flood-color="#333"/>
      <feComposite result="composite" operator="in" in2="SourceGraphic"/>
      <feBlend result="blend" in2="SourceGraphic"/>
    </filter>
  </defs>
  <path id="fa-search" class="cls-1" d="M1512.08,35.307a3.239,3.239,0,1,1,2.28-.947A3.1,3.1,0,0,1,1512.08,35.307Zm6.66,2.118-2.48-2.47a5.044,5.044,0,0,0,.5-4.844,4.939,4.939,0,0,0-2.71-2.7,5.053,5.053,0,0,0-3.94,0,4.939,4.939,0,0,0-2.71,2.7,5.051,5.051,0,0,0,0,3.94,4.939,4.939,0,0,0,2.71,2.7,5.076,5.076,0,0,0,4.85-.493l2.47,2.463a0.87,0.87,0,0,0,.65.274,0.886,0.886,0,0,0,.65-0.274,0.9,0.9,0,0,0,.28-0.648,0.876,0.876,0,0,0-.27-0.648h0Z" transform="translate(-1507 -27)"/>
</svg>
