<?xml version="1.0" encoding="utf-8"?>
<!-- Generator: Adobe Illustrator 22.0.1, SVG Export Plug-In . SVG Version: 6.00 Build 0)  -->
<svg version="1.1" id="Capa_1" xmlns="http://www.w3.org/2000/svg" xmlns:xlink="http://www.w3.org/1999/xlink" x="0px" y="0px"
	 viewBox="0 0 174.3 59.5" style="enable-background:new 0 0 174.3 59.5;" xml:space="preserve">
<style type="text/css">
	.st0{fill:#FF3478;}
</style>
<g>
	<path class="st0" d="M169.3,36.7c-7.5-6.5-29.5-23.7-42-23c-5.2,0.2-11.3,4.9-17.1,9.5c-6.9,5.4-14,10.9-21.8,11.1
		c-8,0.2-16.4-5.4-24.5-10.8c-7.1-4.8-14.5-9.8-20.1-9.6C33.5,14,12.1,28.9,4.6,34.7l-4.6-6C2.9,26.4,29,6.5,43.6,6.2
		c7.9,0.2,16.4,5.4,24.5,10.8c7.1,4.8,14.5,9.8,20.1,9.6c5.2-0.1,11.3-4.9,17.2-9.5C112.3,11.8,119.3,6.3,127,6
		c17.9-0.4,46.1,23.9,47.3,24.9L169.3,36.7z"/>
	<path class="st0" d="M169.3,60.3c-7.5-6.5-29.5-23.7-42-23c-5.2,0.2-11.3,4.9-17.1,9.5c-6.9,5.4-14,10.9-21.8,11.1
		c-8-0.2-16.5-5.4-24.6-10.9c-7.1-4.7-14.2-9.6-20.1-9.6C33.5,37.6,12.1,52.5,4.6,58.2l-4.6-6c2.9-2.3,29-22.1,43.6-22.4
		c8.2-0.2,16.4,5.4,24.5,10.8c7.1,4.8,14.5,9.7,20.2,9.6c5.2-0.1,11.3-4.9,17.2-9.5c6.8-5.3,13.9-10.9,21.6-11.1
		c18.3-0.4,46.1,23.9,47.3,24.9L169.3,60.3z"/>
</g>
</svg>
